HIERARCHY
ROOT Hips
{
	OFFSET 0.000000 0.000000 0.000000
	CHANNELS 6 Xposition Yposition Zposition Zrotation Yrotation Xrotation 
	JOINT LHipJoint
	{
		OFFSET 0.000000 0.000000 0.000000
		CHANNELS 3 Zrotation Yrotation Xrotation
		JOINT LeftUpLeg
		{
			OFFSET 1.363060 -1.794630 0.839290
			CHANNELS 3 Zrotation Yrotation Xrotation
			JOINT LeftLeg
			{
				OFFSET 2.448110 -6.726130 0.000000
				CHANNELS 3 Zrotation Yrotation Xrotation
				JOINT LeftFoot
				{
					OFFSET 2.562200 -7.039590 0.000000
					CHANNELS 3 Zrotation Yrotation Xrotation
					JOINT LeftToeBase
					{
						OFFSET 0.157640 -0.433110 2.322550
						CHANNELS 3 Zrotation Yrotation Xrotation
						End Site
						{
							OFFSET 0.000000 0.000000 0.000000
						}
					}
				}
			}
		}
	}
	JOINT RHipJoint
	{
		OFFSET 0.000000 0.000000 0.000000
		CHANNELS 3 Zrotation Yrotation Xrotation
		JOINT RightUpLeg
		{
			OFFSET -1.305520 -1.794630 0.839290
			CHANNELS 3 Zrotation Yrotation Xrotation
			JOINT RightLeg
			{
				OFFSET -2.542530 -6.985550 0.000000
				CHANNELS 3 Zrotation Yrotation Xrotation
				JOINT RightFoot
				{
					OFFSET -2.568260 -7.056230 0.000000
					CHANNELS 3 Zrotation Yrotation Xrotation
					JOINT RightToeBase
					{
						OFFSET -0.164730 -0.452590 2.363150
						CHANNELS 3 Zrotation Yrotation Xrotation
						End Site
						{
							OFFSET 0.000000 0.000000 0.000000
						}
					}
				}
			}
		}
	}
	JOINT LowerBack
	{
		OFFSET 0.000000 0.000000 0.000000
		CHANNELS 3 Zrotation Yrotation Xrotation
		JOINT Spine
		{
			OFFSET 0.028270 2.035590 -0.193380
			CHANNELS 3 Zrotation Yrotation Xrotation
			JOINT Spine1
			{
				OFFSET 0.056720 2.048850 -0.042750
				CHANNELS 3 Zrotation Yrotation Xrotation
				JOINT Neck
				{
					OFFSET 0.000000 0.000000 0.000000
					CHANNELS 3 Zrotation Yrotation Xrotation
					JOINT Neck1
					{
						OFFSET -0.054170 1.746240 0.172020
						CHANNELS 3 Zrotation Yrotation Xrotation
						JOINT Head
						{
							OFFSET 0.104070 1.761360 -0.123970
							CHANNELS 3 Zrotation Yrotation Xrotation
							End Site
							{
								OFFSET 0.000000 0.000000 0.000000
							}
						}
					}
				}
				JOINT LeftShoulder
				{
					OFFSET 0.000000 0.000000 0.000000
					CHANNELS 3 Zrotation Yrotation Xrotation
					JOINT LeftArm
					{
						OFFSET 3.362410 1.200890 -0.311210
						CHANNELS 3 Zrotation Yrotation Xrotation
						JOINT LeftForeArm
						{
							OFFSET 4.983000 -0.000000 -0.000000
							CHANNELS 3 Zrotation Yrotation Xrotation
							JOINT LeftHand
							{
								OFFSET 3.483560 -0.000000 -0.000000
								CHANNELS 3 Zrotation Yrotation Xrotation
								JOINT LeftFingerBase
								{
									OFFSET 0.000000 0.000000 0.000000
									CHANNELS 3 Zrotation Yrotation Xrotation
									JOINT LeftHandIndex1
									{
										OFFSET 0.715260 -0.000000 -0.000000
										CHANNELS 3 Zrotation Yrotation Xrotation
										End Site
										{
											OFFSET 0.000000 0.000000 0.000000
										}
									}
								}
								JOINT LThumb
								{
									OFFSET 0.000000 0.000000 0.000000
									CHANNELS 3 Zrotation Yrotation Xrotation
									End Site
									{
										OFFSET 0.000000 0.000000 0.000000
									}
								}
							}
						}
					}
				}
				JOINT RightShoulder
				{
					OFFSET 0.000000 0.000000 0.000000
					CHANNELS 3 Zrotation Yrotation Xrotation
					JOINT RightArm
					{
						OFFSET -3.136600 1.374050 -0.404650
						CHANNELS 3 Zrotation Yrotation Xrotation
						JOINT RightForeArm
						{
							OFFSET -5.241900 -0.000000 -0.000000
							CHANNELS 3 Zrotation Yrotation Xrotation
							JOINT RightHand
							{
								OFFSET -3.444170 -0.000000 -0.000000
								CHANNELS 3 Zrotation Yrotation Xrotation
								JOINT RightFingerBase
								{
									OFFSET 0.000000 0.000000 0.000000
									CHANNELS 3 Zrotation Yrotation Xrotation
									JOINT RightHandIndex1
									{
										OFFSET -0.622530 -0.000000 -0.000000
										CHANNELS 3 Zrotation Yrotation Xrotation
										End Site
										{
											OFFSET 0.000000 0.000000 0.000000
										}
									}
								}
								JOINT RThumb
								{
									OFFSET 0.000000 0.000000 0.000000
									CHANNELS 3 Zrotation Yrotation Xrotation
									End Site
									{
										OFFSET 0.000000 0.000000 0.000000
									}
								}
							}
						}
					}
				}
			}
		}
	}
}
MOTION
Frames: 9
Frame Time: 0.008333
-0.417780 18.373928 8.491960 -7.348839 -2.125134 13.104011 6.937130 4.537216 -2.088576 -23.703961 -40.964003 19.619037 -3.862523 -2.471173 -2.949373 -13.841015 44.086847 -30.526971 0.667800 5.226000 14.554300 -0.387346 -4.460945 -0.446939 21.685681 28.025869 1.951325 3.507096 -0.561890 2.344039 7.168907 -23.482002 -0.242563 -0.000900 0.195300 -0.536700 -5.733136 1.686691 8.784985 21.691547 6.981141 -27.742069 -10.322628 -1.212596 -8.920743 -26.269027 -13.621126 -2.795826 20.087716 -22.616906 25.034423 4.090800 -9.910700 8.185600 -9.527658 -6.332562 1.607263 -87.474400 12.656159 14.226902 12.066640 -13.463941 -2.012797 0.049544 0.850753 27.301202 11.623222 -5.403376 -1.309800 -7.125000 0.000000 0.000000 -10.881400 23.669400 5.697100 11.899142 7.286643 1.968432 77.942036 -16.348456 5.368405 -13.729520 18.747462 -2.862253 0.855758 1.587017 39.268448 7.536768 -30.580388 -4.234000 7.125000 0.000000 0.000000 43.123000 -56.817300 -14.297800 
-0.419147 18.374244 8.491645 -7.291390 -2.111983 13.085435 6.924212 4.539823 -2.101059 -23.783231 -40.971469 19.684649 -3.857297 -2.475818 -2.983419 -13.961752 44.248142 -30.340624 0.604900 4.978200 13.846500 -0.412835 -4.465367 -0.460544 21.675282 28.032144 2.011010 3.511073 -0.534756 2.271239 7.200360 -23.581686 -0.204836 -0.001000 0.208200 -0.572100 -5.704473 1.692048 8.849936 21.462916 6.961044 -27.899366 -10.255886 -1.192604 -8.896831 -26.237523 -13.608003 -2.698078 20.120238 -22.635460 25.025753 4.098200 -9.919500 8.173700 -9.505595 -6.334418 1.622786 -87.463794 12.675094 14.216157 12.043495 -13.431408 -2.008697 0.049813 0.876554 27.358052 11.766411 -5.543297 -1.362100 -7.125000 0.000000 0.000000 -10.756600 23.502000 5.671700 11.934367 7.278397 1.969719 77.993422 -16.417260 5.354491 -13.734884 18.751160 -2.863419 0.856909 1.584111 39.162183 7.409095 -30.593255 -4.162900 7.125000 0.000000 0.000000 43.014300 -56.854900 -14.292800 
-0.419988 18.374244 8.491224 -7.219860 -2.122527 13.067495 6.908962 4.542593 -2.106799 -23.911067 -41.039977 19.786020 -3.859264 -2.480639 -3.000409 -13.966906 44.288873 -30.444392 0.607600 4.989200 13.877700 -0.431700 -4.468793 -0.472519 21.638084 28.055167 2.060227 3.515245 -0.512884 2.207920 7.249078 -23.724202 -0.192320 -0.000000 -0.024300 0.066700 -5.701197 1.695289 8.889269 21.279963 6.941397 -28.016162 -10.192263 -1.176663 -8.877837 -26.242337 -13.602734 -2.646301 20.177183 -22.655537 25.030112 4.112200 -9.926300 8.174700 -9.487874 -6.335806 1.633995 -87.464744 12.676758 14.222273 12.033383 -13.413174 -2.005086 0.055175 0.879695 27.419238 11.752844 -5.576558 -1.368400 -7.125000 0.000000 0.000000 -10.765800 23.464000 5.686300 11.965592 7.273745 1.971737 78.031064 -16.470076 5.277588 -13.742207 18.758570 -2.865657 0.855023 1.585068 39.136851 7.410528 -30.570829 -4.161800 7.125000 0.000000 0.000000 42.994600 -56.837200 -14.264900 
-0.420409 18.373718 8.490698 -7.216540 -2.140441 13.066564 6.903632 4.539924 -2.110201 -23.907466 -41.027072 19.779344 -3.861158 -2.477061 -2.989119 -13.920146 44.229491 -30.515643 0.622300 5.048000 14.045600 -0.436162 -4.467443 -0.481769 21.647891 28.071711 2.065464 3.515606 -0.515548 2.211932 7.259158 -23.752210 -0.210296 -0.001600 -0.256700 0.705400 -5.692919 1.702109 8.904051 21.232048 6.949691 -28.099282 -10.172472 -1.174291 -8.879685 -26.222730 -13.638405 -2.709230 20.172177 -22.696124 25.096192 4.104000 -9.941500 8.205800 -9.480248 -6.331716 1.641794 -87.478667 12.669311 14.190974 12.006138 -13.373779 -1.994002 0.050707 0.877234 27.486746 11.750892 -5.509506 -1.353300 -7.125000 0.000000 0.000000 -10.769200 23.536200 5.670000 11.964924 7.276789 1.977669 78.068588 -16.508036 5.206978 -13.747763 18.766392 -2.867920 0.850487 1.589793 39.192283 7.545121 -30.524124 -4.233700 7.125000 0.000000 0.000000 43.077900 -56.771600 -14.228300 
-0.423983 18.376556 8.497952 -7.028375 -2.195398 13.230077 6.871261 4.539778 -2.134864 -24.007126 -41.061204 19.633557 -3.858022 -2.460497 -2.980158 -13.899835 44.211791 -30.520695 0.628700 5.073600 14.118700 -0.462105 -4.438480 -0.536794 21.417987 28.173629 1.991222 3.518417 -0.503217 2.164688 7.294222 -23.830418 -0.234236 -0.001800 -0.274400 0.754000 -5.823247 1.655414 8.729534 20.895374 6.900999 -28.466058 -9.961556 -1.153805 -8.605250 -26.043871 -13.630366 -2.553501 19.878731 -22.679882 25.215888 4.027000 -9.947400 8.197600 -9.464675 -6.379513 1.675983 -87.492471 12.645530 14.047626 11.973204 -13.304365 -1.978986 0.047528 0.887309 27.628870 11.817079 -5.481842 -1.357500 -7.125000 0.000000 0.000000 -10.715300 23.555300 5.635800 12.005147 7.284182 2.000562 78.044948 -16.494056 5.283356 -13.678420 18.671594 -2.845303 0.852135 1.592338 39.121034 7.642827 -30.460172 -4.278600 7.125000 0.000000 0.000000 43.105700 -56.705700 -14.167400 
-0.429450 18.382444 8.512670 -6.551646 -2.308124 13.530410 6.792477 4.549097 -2.172357 -24.418366 -41.262299 19.508567 -3.853305 -2.444781 -3.007060 -13.947904 44.354445 -30.628711 0.621800 5.046200 14.040500 -0.532122 -4.386999 -0.630663 20.844603 28.336610 1.848764 3.525770 -0.456159 2.016040 7.377992 -24.019637 -0.232666 -0.001600 -0.259500 0.713000 -6.076329 1.540045 8.374179 20.092949 6.719977 -29.049615 -9.503717 -1.113832 -8.098074 -25.902440 -13.612101 -2.312180 19.874315 -22.685676 25.147941 4.012900 -9.948800 8.161700 -9.415606 -6.453353 1.725184 -87.490008 12.642338 13.997451 11.989209 -13.278629 -1.977605 0.052197 0.890749 27.637640 11.815068 -5.488147 -1.359500 -7.125000 0.000000 0.000000 -10.717700 23.543800 5.640000 12.147908 7.290077 2.030772 77.938635 -16.432234 5.472793 -13.540082 18.485065 -2.800229 0.860355 1.594573 38.923606 7.689028 -30.425987 -4.294700 7.125000 0.000000 0.000000 43.113100 -56.679300 -14.141400 
-0.432393 18.385492 8.519609 -6.291979 -2.368083 13.679460 6.741200 4.551960 -2.193591 -24.677993 -41.422958 19.502668 -3.854389 -2.434716 -3.012226 -13.937115 44.412770 -30.855677 0.624800 5.058000 14.074000 -0.577855 -4.363723 -0.683048 20.548557 28.432475 1.793869 3.530207 -0.428911 1.932497 7.423246 -24.119752 -0.248781 -0.002400 -0.313300 0.860900 -6.172720 1.478420 8.236034 19.605440 6.605231 -29.405078 -9.248931 -1.098131 -7.866142 -25.893947 -13.590130 -2.188059 19.978971 -22.697315 25.154814 4.038000 -9.945300 8.166400 -9.371458 -6.484555 1.755086 -87.494902 12.681557 14.079287 12.016436 -13.290530 -1.983997 0.051721 0.891420 27.491049 11.822308 -5.506387 -1.364400 -7.125000 0.000000 0.000000 -10.712100 23.524000 5.641900 12.230819 7.291121 2.049519 77.909376 -16.437083 5.577109 -13.494605 18.422968 -2.787934 0.863501 1.601364 38.798534 7.789040 -30.473130 -4.354400 7.125000 0.000000 0.000000 43.255400 -56.700400 -14.224900 
-0.432604 18.385387 8.518768 -6.290965 -2.367495 13.684318 6.738647 4.547468 -2.200177 -24.692927 -41.447761 19.510768 -3.856691 -2.423069 -2.979300 -13.898322 44.375275 -30.962645 0.632900 5.090200 14.165900 -0.577933 -4.361960 -0.689952 20.545925 28.439096 1.784208 3.529995 -0.435339 1.946867 7.418587 -24.102931 -0.274966 -0.003200 -0.367400 1.009600 -6.177816 1.479260 8.268206 19.609831 6.612128 -29.490539 -9.239392 -1.106669 -7.885600 -25.948166 -13.569696 -2.184209 19.996572 -22.689292 25.267659 4.053500 -9.936700 8.201900 -9.359794 -6.482073 1.762605 -87.533101 12.711976 14.087435 12.013310 -13.284902 -1.984714 0.058971 0.899825 27.450984 11.825979 -5.605485 -1.388100 -7.125000 0.000000 0.000000 -10.704500 23.413100 5.665600 12.217754 7.293167 2.059111 77.920595 -16.490359 5.674400 -13.529103 18.471448 -2.803084 0.860568 1.609587 38.661356 7.866160 -30.550028 -4.407800 7.125000 0.000000 0.000000 43.407700 -56.745400 -14.339400 
-0.431973 18.384967 8.517716 -6.278008 -2.379367 13.691646 6.742461 4.542934 -2.208749 -24.708735 -41.428214 19.498328 -3.855107 -2.421628 -2.977766 -13.930069 44.410645 -30.892783 0.625400 5.060400 14.080800 -0.577565 -4.356436 -0.694307 20.508602 28.391089 1.728024 3.528208 -0.444566 1.965749 7.403000 -24.062233 -0.239130 -0.002800 -0.340100 0.934400 -6.194595 1.490973 8.280796 19.621181 6.637554 -29.572800 -9.240154 -1.104450 -7.869975 -26.019729 -13.531161 -2.078988 20.136798 -22.678926 25.179687 4.101900 -9.928800 8.188400 -9.347061 -6.488860 1.764742 -87.598945 12.720067 13.979016 12.021278 -13.290128 -1.986478 0.076221 0.895636 27.600558 11.722240 -5.648372 -1.384000 -7.125000 0.000000 0.000000 -10.788300 23.369800 5.722400 12.207067 7.298675 2.065346 77.923145 -16.522477 5.721944 -13.553189 18.502625 -2.813076 0.860178 1.611879 38.585842 7.868869 -30.597035 -4.414900 7.125000 0.000000 0.000000 43.457300 -56.781700 -14.401000 
